<mxfile host="app.diagrams.net" modified="2024-05-24T09:08:04.135Z" agent="Mozilla/5.0 (Windows NT 10.0; Win64; x64) AppleWebKit/537.36 (KHTML, like Gecko) Chrome/124.0.0.0 Safari/537.36" version="24.4.7" etag="GZ1UoqyujP2BZu5IDtqX" type="github">
  <diagram name="第 1 页" id="l0pJrwIypnOhL1vik2vc">
    <mxGraphModel>
      <root>
        <mxCell id="0" />
        <mxCell id="1" parent="0" />
      </root>
    </mxGraphModel>
  </diagram>
</mxfile>
